<svg xmlns="http://www.w3.org/2000/svg" width="120" height="19" viewBox="0 3 120 19" fill="none">
<g clip-path="url(#clip0_227_448)">
<rect width="120" height="24" fill="white" fill-opacity="0.01"/>
<path d="M25.4447 4.19905H31.9676C35.1482 4.19905 36.6846 5.7109 36.6846 8.13507C36.6846 9.95972 35.8221 11.0806 34.07 11.4716C36.3611 11.8365 37.5202 13.0616 37.5202 15.1991C37.5202 17.5972 35.849 19.2654 32.345 19.2654H25.4447V4.19905ZM27.601 10.6374H31.6981C33.7196 10.6374 34.5552 9.75118 34.5552 8.29147C34.5552 6.83175 33.6657 6.12796 31.6981 6.12796H27.601V10.6374ZM27.601 12.4882V17.1801H32.4528C34.5013 17.1801 35.4177 16.4763 35.4177 14.9645C35.4177 13.3483 34.5283 12.4882 32.3989 12.4882H27.601Z" fill="#253858"/>
<path d="M41.0242 3.391C41.8598 3.391 42.4528 3.88626 42.4528 4.77251C42.4528 5.6327 41.8598 6.15403 41.0242 6.15403C40.1886 6.15403 39.5956 5.65877 39.5956 4.77251C39.5956 3.88626 40.1886 3.391 41.0242 3.391ZM39.973 7.79621H42.0215V19.2654H39.973V7.79621Z" fill="#253858"/>
<path d="M49.7844 17.4147C50.2695 17.4147 50.7008 17.3104 51.0782 17.2583V19.1611C50.7278 19.2654 50.3235 19.3436 49.7035 19.3436C47.1698 19.3436 45.9299 17.91 45.9299 15.7725V9.62085H44.0162V7.79621H45.9299V5.37204H47.9245V7.79621H51.0782V9.62085H47.9245V15.6943C47.9245 16.7109 48.5445 17.4147 49.7844 17.4147Z" fill="#253858"/>
<path d="M55.7142 17.2322V19.2393H53.6656V3H55.7142V9.85545C56.4689 8.3436 57.8974 7.56161 59.7303 7.56161C62.884 7.56161 64.4743 10.1422 64.4743 13.5308C64.4743 16.763 62.8031 19.5 59.4877 19.5C57.7627 19.5 56.4419 18.7441 55.7142 17.2322ZM59.1912 9.41232C57.3584 9.41232 55.7411 10.5332 55.7411 13.0877V14C55.7411 16.5545 57.2236 17.6754 58.9756 17.6754C61.2667 17.6754 62.4527 16.2156 62.4527 13.5569C62.4257 10.7678 61.2937 9.41232 59.1912 9.41232Z" fill="#253858"/>
<path d="M66.6037 7.79621H68.6522V14.7299C68.6522 16.7891 69.5147 17.7014 71.4554 17.7014C73.3422 17.7014 74.6629 16.4763 74.6629 14.1564V7.79621H76.7115V19.2654H74.6629V17.3886C73.9082 18.7441 72.5066 19.5 70.9163 19.5C68.1939 19.5 66.6306 17.6754 66.6306 14.5213V7.79621H66.6037Z" fill="#253858"/>
<path d="M88.1402 18.9526C87.4394 19.3175 86.3342 19.4739 85.2561 19.4739C81.0243 19.4739 79.0566 16.9976 79.0566 13.4787C79.0566 10.0118 81.0243 7.53554 85.2561 7.53554C86.3342 7.53554 87.1429 7.66588 88.0863 8.08294V9.90758C87.3315 9.56872 86.5229 9.36019 85.4178 9.36019C82.345 9.36019 81.0782 11.237 81.0782 13.4787C81.0782 15.7204 82.372 17.5972 85.4717 17.5972C86.6846 17.5972 87.4394 17.4408 88.1671 17.1801V18.9526H88.1402Z" fill="#253858"/>
<path d="M90.4581 19.2654V3H92.5066V13.1659L97.601 7.79621H100.269L94.6899 13.4265L100.512 19.2654H97.7357L92.5066 13.8957V19.2654H90.4581Z" fill="#253858"/>
<path d="M107.251 19.5C102.803 19.5 100.863 17.0237 100.863 13.5047C100.863 10.0379 102.857 7.56161 106.469 7.56161C110.135 7.56161 111.59 10.0118 111.59 13.5047V14.391H102.938C103.235 16.346 104.528 17.5972 107.332 17.5972C108.706 17.5972 109.865 17.3365 110.943 16.9716V18.7962C109.973 19.3175 108.464 19.5 107.251 19.5ZM102.911 12.6967H109.542C109.434 10.5592 108.437 9.36019 106.388 9.36019C104.232 9.36019 103.127 10.7156 102.911 12.6967Z" fill="#253858"/>
<path d="M118.706 17.4147C119.191 17.4147 119.623 17.3104 120 17.2583V19.1611C119.65 19.2654 119.245 19.3436 118.625 19.3436C116.092 19.3436 114.852 17.91 114.852 15.7725V9.62085H112.938V7.79621H114.852V5.37204H116.846V7.79621H120V9.62085H116.846V15.6943C116.846 16.7109 117.466 17.4147 118.706 17.4147Z" fill="#253858"/>
<path d="M0.539029 4.64218C0.215579 4.64218 -0.0539631 4.92891 -5.47399e-05 5.24171L2.29105 18.6659C2.34496 19.0047 2.64145 19.2654 3.01881 19.2654H13.9892C14.2587 19.2654 14.4743 19.0829 14.5282 18.8223L16.8194 5.24171C16.8733 4.92891 16.6307 4.64218 16.2803 4.64218H0.539029ZM10.1886 14.3389H6.68458L5.74118 9.54265H11.0512L10.1886 14.3389Z" fill="#2684FF"/>
<path d="M16.0915 9.54265H11.0241L10.1886 14.3389H6.68451L2.53357 19.0829C2.53357 19.0829 2.72225 19.2654 3.01874 19.2654H13.9891C14.2586 19.2654 14.4743 19.0829 14.5282 18.8223L16.0915 9.54265Z" fill="url(#paint0_linear_227_448)"/>
</g>
<defs>
<linearGradient id="paint0_linear_227_448" x1="17.2536" y1="10.89" x2="9.10613" y2="17.4665" gradientUnits="userSpaceOnUse">
<stop offset="0.176" stop-color="#0052CC"/>
<stop offset="1" stop-color="#2684FF"/>
</linearGradient>
<clipPath id="clip0_227_448">
<rect width="120" height="24" fill="white"/>
</clipPath>
</defs>
</svg>